<?xml version="1.0" encoding="UTF-8" standalone="no"?>
<!DOCTYPE svg PUBLIC "-//W3C//DTD SVG 1.1//EN"
 "http://www.w3.org/Graphics/SVG/1.1/DTD/svg11.dtd">
<!-- Generated by graphviz version 2.40.1 (20161225.0304)
 -->
<!-- Title: G Pages: 1 -->
<svg width="2733pt" height="979pt"
 viewBox="0.00 0.00 2733.00 979.00" xmlns="http://www.w3.org/2000/svg" xmlns:xlink="http://www.w3.org/1999/xlink">
<g id="graph0" class="graph" transform="scale(1 1) rotate(0) translate(36 943)">
<title>G</title>
<polygon fill="#ffffff" stroke="transparent" points="-36,36 -36,-943 2697,-943 2697,36 -36,36"/>
<!-- boot -->
<g id="node1" class="node">
<title>boot</title>
<ellipse fill="#000000" stroke="#000000" cx="54" cy="-683" rx="54" ry="54"/>
<text text-anchor="middle" x="54" y="-679.3" font-family="Times,serif" font-size="14.00" fill="#ffffff">boot</text>
</g>
<!-- wifi_connected -->
<g id="node2" class="node">
<title>wifi_connected</title>
<ellipse fill="none" stroke="#000000" cx="380" cy="-356" rx="54" ry="54"/>
<text text-anchor="middle" x="380" y="-352.3" font-family="Times,serif" font-size="14.00" fill="#000000">wifi_connected</text>
</g>
<!-- boot&#45;&gt;wifi_connected -->
<g id="edge1" class="edge">
<title>boot&#45;&gt;wifi_connected</title>
<path fill="none" stroke="#000000" d="M92.355,-644.5274C152.8054,-583.8915 269.9892,-466.3482 334.5655,-401.5739"/>
<polygon fill="#000000" stroke="#000000" points="337.2095,-403.8792 341.7911,-394.3261 332.2521,-398.937 337.2095,-403.8792"/>
<text text-anchor="middle" x="217" y="-606.8" font-family="Times,serif" font-size="14.00" fill="#000000">tr_wifi_connected (ID=1)</text>
</g>
<!-- ap_running -->
<g id="node3" class="node">
<title>ap_running</title>
<ellipse fill="none" stroke="#000000" cx="2171.5" cy="-820" rx="54" ry="54"/>
<text text-anchor="middle" x="2171.5" y="-816.3" font-family="Times,serif" font-size="14.00" fill="#000000">ap_running</text>
</g>
<!-- boot&#45;&gt;ap_running -->
<g id="edge2" class="edge">
<title>boot&#45;&gt;ap_running</title>
<path fill="none" stroke="#000000" d="M95.495,-717.8153C154.6552,-763.792 268.4733,-839 380,-839 380,-839 380,-839 1730,-839 1864.3608,-839 2021.5097,-830.108 2107.3869,-824.4901"/>
<polygon fill="#000000" stroke="#000000" points="2107.7526,-827.9737 2117.5001,-823.8221 2107.2911,-820.9889 2107.7526,-827.9737"/>
<text text-anchor="middle" x="1023.5" y="-842.8" font-family="Times,serif" font-size="14.00" fill="#000000">tr_wifi_not_connected (ID=2)</text>
</g>
<!-- wifi_connected&#45;&gt;ap_running -->
<g id="edge6" class="edge">
<title>wifi_connected&#45;&gt;ap_running</title>
<path fill="none" stroke="#000000" d="M384.3175,-410.1395C392.3458,-497.0817 412.4647,-662.3108 452,-704 562.676,-820.7058 641.1602,-796 802,-796 802,-796 802,-796 1730,-796 1864.4348,-796 2021.5564,-807.232 2107.409,-814.3282"/>
<polygon fill="#000000" stroke="#000000" points="2107.2628,-817.8281 2117.5193,-815.1721 2107.8451,-810.8524 2107.2628,-817.8281"/>
<text text-anchor="middle" x="1294" y="-799.8" font-family="Times,serif" font-size="14.00" fill="#000000">tr_ap_long_press (ID=15)</text>
</g>
<!-- ping -->
<g id="node5" class="node">
<title>ping</title>
<ellipse fill="none" stroke="#000000" cx="802" cy="-660" rx="54" ry="54"/>
<text text-anchor="middle" x="802" y="-656.3" font-family="Times,serif" font-size="14.00" fill="#000000">ping</text>
</g>
<!-- wifi_connected&#45;&gt;ping -->
<g id="edge33" class="edge">
<title>wifi_connected&#45;&gt;ping</title>
<path fill="none" stroke="#000000" d="M386.5756,-409.8763C396.584,-482.1333 418.1317,-604.6612 452,-633 532.2941,-700.185 662.4313,-689.36 739.3614,-674.9678"/>
<polygon fill="#000000" stroke="#000000" points="740.2458,-678.3614 749.3924,-673.0144 738.9077,-671.4905 740.2458,-678.3614"/>
<text text-anchor="middle" x="584.5" y="-688.8" font-family="Times,serif" font-size="14.00" fill="#000000"> (10000ms)</text>
</g>
<!-- wifi_alert -->
<g id="node7" class="node">
<title>wifi_alert</title>
<ellipse fill="none" stroke="#000000" cx="1294" cy="-503" rx="54" ry="54"/>
<text text-anchor="middle" x="1294" y="-499.3" font-family="Times,serif" font-size="14.00" fill="#000000">wifi_alert</text>
</g>
<!-- wifi_connected&#45;&gt;wifi_alert -->
<g id="edge28" class="edge">
<title>wifi_connected&#45;&gt;wifi_alert</title>
<path fill="none" stroke="#000000" d="M410.4768,-400.8078C421.8836,-414.0815 436.0069,-427.1527 452,-435 716.3835,-564.7244 1084.0685,-532.7769 1230.3266,-512.9707"/>
<polygon fill="#000000" stroke="#000000" points="1231.0438,-516.4049 1240.4701,-511.5681 1230.0849,-509.4709 1231.0438,-516.4049"/>
<text text-anchor="middle" x="802" y="-531.8" font-family="Times,serif" font-size="14.00" fill="#000000">tr_wifi_lost (ID=3)</text>
</g>
<!-- ip_select -->
<g id="node9" class="node">
<title>ip_select</title>
<ellipse fill="none" stroke="#000000" cx="2171.5" cy="-341" rx="54" ry="54"/>
<text text-anchor="middle" x="2171.5" y="-337.3" font-family="Times,serif" font-size="14.00" fill="#000000">ip_select</text>
</g>
<!-- wifi_connected&#45;&gt;ip_select -->
<g id="edge16" class="edge">
<title>wifi_connected&#45;&gt;ip_select</title>
<path fill="none" stroke="#000000" d="M434.1041,-355.547C695.2741,-353.3603 1824.5626,-343.9049 2107.1882,-341.5385"/>
<polygon fill="#000000" stroke="#000000" points="2107.3047,-345.0377 2117.275,-341.454 2107.246,-338.038 2107.3047,-345.0377"/>
<text text-anchor="middle" x="1294" y="-352.8" font-family="Times,serif" font-size="14.00" fill="#000000">tr_ip_select_long_press (ID=18)</text>
</g>
<!-- ping_sound_select -->
<g id="node12" class="node">
<title>ping_sound_select</title>
<ellipse fill="none" stroke="#000000" cx="802" cy="-214" rx="54" ry="54"/>
<text text-anchor="middle" x="802" y="-210.3" font-family="Times,serif" font-size="14.00" fill="#000000">ping_sound_select</text>
</g>
<!-- wifi_connected&#45;&gt;ping_sound_select -->
<g id="edge20" class="edge">
<title>wifi_connected&#45;&gt;ping_sound_select</title>
<path fill="none" stroke="#000000" d="M411.4211,-311.562C422.7129,-298.9064 436.5297,-286.5257 452,-279 558.3091,-227.2846 603.1497,-287.8467 717,-256 726.6299,-253.3063 736.476,-249.5259 745.8934,-245.3262"/>
<polygon fill="#000000" stroke="#000000" points="747.5608,-248.4105 755.144,-241.0115 744.6018,-242.0667 747.5608,-248.4105"/>
<text text-anchor="middle" x="584.5" y="-282.8" font-family="Times,serif" font-size="14.00" fill="#000000">tr_ping_sound_long_press (ID=21)</text>
</g>
<!-- alert_enabled_select -->
<g id="node14" class="node">
<title>alert_enabled_select</title>
<ellipse fill="none" stroke="#000000" cx="802" cy="-88" rx="54" ry="54"/>
<text text-anchor="middle" x="802" y="-84.3" font-family="Times,serif" font-size="14.00" fill="#000000">alert_enabled_select</text>
</g>
<!-- wifi_connected&#45;&gt;alert_enabled_select -->
<g id="edge24" class="edge">
<title>wifi_connected&#45;&gt;alert_enabled_select</title>
<path fill="none" stroke="#000000" d="M385.2514,-302.0274C392.5698,-258.2995 410.0849,-198.8931 452,-167 499.0729,-131.1823 661.0415,-161.1681 717,-142 728.371,-138.105 739.7649,-132.4074 750.3492,-126.1564"/>
<polygon fill="#000000" stroke="#000000" points="752.3565,-129.0306 759.0314,-120.8028 748.6825,-123.0723 752.3565,-129.0306"/>
<text text-anchor="middle" x="584.5" y="-170.8" font-family="Times,serif" font-size="14.00" fill="#000000">tr_alert_enabled_long_press (ID=24)</text>
</g>
<!-- ap_running&#45;&gt;ap_running -->
<g id="edge5" class="edge">
<title>ap_running&#45;&gt;ap_running</title>
<path fill="none" stroke="#000000" d="M2128.6094,-853.3281C2119.0781,-873.25 2133.375,-892 2171.5,-892 2203.3701,-892 2218.5893,-878.8977 2217.1577,-862.9612"/>
<polygon fill="#000000" stroke="#000000" points="2220.5155,-861.9732 2214.3906,-853.3281 2213.7875,-863.9058 2220.5155,-861.9732"/>
<text text-anchor="middle" x="2171.5" y="-895.8" font-family="Times,serif" font-size="14.00" fill="#000000">tr_ap_config_err (ID=8)</text>
</g>
<!-- reboot -->
<g id="node4" class="node">
<title>reboot</title>
<ellipse fill="none" stroke="#000000" cx="2607" cy="-749" rx="54" ry="54"/>
<text text-anchor="middle" x="2607" y="-745.3" font-family="Times,serif" font-size="14.00" fill="#000000">reboot</text>
</g>
<!-- ap_running&#45;&gt;reboot -->
<g id="edge3" class="edge">
<title>ap_running&#45;&gt;reboot</title>
<path fill="none" stroke="#000000" d="M2224.1497,-832.0494C2297.0681,-846.1134 2431.5074,-862.4447 2535,-820 2546.5346,-815.2694 2557.2104,-807.6997 2566.6162,-799.23"/>
<polygon fill="#000000" stroke="#000000" points="2569.0728,-801.7235 2573.8793,-792.2817 2564.2339,-796.6654 2569.0728,-801.7235"/>
<text text-anchor="middle" x="2416" y="-850.8" font-family="Times,serif" font-size="14.00" fill="#000000">trp_config_ok (ID=7)</text>
</g>
<!-- ap_running&#45;&gt;reboot -->
<g id="edge4" class="edge">
<title>ap_running&#45;&gt;reboot</title>
<path fill="none" stroke="#000000" d="M2224.8235,-811.0773C2247.0862,-807.5733 2273.2482,-803.7426 2297,-801 2402.4139,-788.8281 2432.3094,-808.7373 2535,-782 2539.6615,-780.7863 2544.3955,-779.2868 2549.0948,-777.6025"/>
<polygon fill="#000000" stroke="#000000" points="2550.5848,-780.7793 2558.6578,-773.918 2548.0681,-774.2473 2550.5848,-780.7793"/>
<text text-anchor="middle" x="2416" y="-804.8" font-family="Times,serif" font-size="14.00" fill="#000000">tr_ap_long_press (ID=15)</text>
</g>
<!-- ap_running&#45;&gt;reboot -->
<g id="edge32" class="edge">
<title>ap_running&#45;&gt;reboot</title>
<path fill="none" stroke="#000000" d="M2218.5358,-793.4697C2241.4663,-781.9006 2269.8924,-769.5111 2297,-763 2341.9321,-752.2075 2465.8496,-749.5927 2542.7183,-749.042"/>
<polygon fill="#000000" stroke="#000000" points="2542.798,-752.5416 2552.7761,-748.9797 2542.7546,-745.5418 2542.798,-752.5416"/>
<text text-anchor="middle" x="2416" y="-766.8" font-family="Times,serif" font-size="14.00" fill="#000000"> (180000ms)</text>
</g>
<!-- ping&#45;&gt;wifi_connected -->
<g id="edge8" class="edge">
<title>ping&#45;&gt;wifi_connected</title>
<path fill="none" stroke="#000000" d="M755.1154,-633.0894C743.0362,-627.2136 729.8195,-621.6636 717,-618 660.1061,-601.7406 497.7772,-629.4931 452,-592 425.1989,-570.0489 403.5226,-481.6261 391.1941,-419.4904"/>
<polygon fill="#000000" stroke="#000000" points="394.5709,-418.5195 389.2228,-409.3735 387.7001,-419.8583 394.5709,-418.5195"/>
<text text-anchor="middle" x="584.5" y="-621.8" font-family="Times,serif" font-size="14.00" fill="#000000">tr_ping_ok (ID=9)</text>
</g>
<!-- ping_timeout -->
<g id="node6" class="node">
<title>ping_timeout</title>
<ellipse fill="none" stroke="#000000" cx="1294" cy="-694" rx="54" ry="54"/>
<text text-anchor="middle" x="1294" y="-690.3" font-family="Times,serif" font-size="14.00" fill="#000000">ping_timeout</text>
</g>
<!-- ping&#45;&gt;ping_timeout -->
<g id="edge7" class="edge">
<title>ping&#45;&gt;ping_timeout</title>
<path fill="none" stroke="#000000" d="M855.9342,-655.8557C926.2304,-651.4006 1052.842,-646.6174 1160,-660 1184.0654,-663.0055 1210.01,-668.9355 1232.6009,-675.0131"/>
<polygon fill="#000000" stroke="#000000" points="1231.8223,-678.429 1242.3928,-677.712 1233.6823,-671.6806 1231.8223,-678.429"/>
<text text-anchor="middle" x="1023.5" y="-663.8" font-family="Times,serif" font-size="14.00" fill="#000000">tr_ping_timeout (ID=10)</text>
</g>
<!-- ping&#45;&gt;wifi_alert -->
<g id="edge9" class="edge">
<title>ping&#45;&gt;wifi_alert</title>
<path fill="none" stroke="#000000" d="M852.7898,-641.4887C863.9476,-637.9241 875.7824,-634.521 887,-632 1006.2953,-605.1904 1046.0173,-642.25 1160,-598 1191.1689,-585.8997 1221.895,-564.9562 1246.046,-545.8078"/>
<polygon fill="#000000" stroke="#000000" points="1248.3987,-548.4065 1253.9754,-539.3982 1243.9982,-542.9627 1248.3987,-548.4065"/>
<text text-anchor="middle" x="1023.5" y="-635.8" font-family="Times,serif" font-size="14.00" fill="#000000">tr_wifi_lost (ID=3)</text>
</g>
<!-- ping_timeout&#45;&gt;ping -->
<g id="edge34" class="edge">
<title>ping_timeout&#45;&gt;ping</title>
<path fill="none" stroke="#000000" d="M1239.8422,-693.6724C1161.6882,-692.701 1012.8442,-688.9831 887,-675 879.935,-674.215 872.5697,-673.2058 865.2579,-672.0826"/>
<polygon fill="#000000" stroke="#000000" points="865.7825,-668.6221 855.3537,-670.4905 864.6715,-675.5333 865.7825,-668.6221"/>
<text text-anchor="middle" x="1023.5" y="-694.8" font-family="Times,serif" font-size="14.00" fill="#000000"> (3000ms)</text>
</g>
<!-- ping_alert -->
<g id="node8" class="node">
<title>ping_alert</title>
<ellipse fill="none" stroke="#000000" cx="1730" cy="-694" rx="54" ry="54"/>
<text text-anchor="middle" x="1730" y="-690.3" font-family="Times,serif" font-size="14.00" fill="#000000">ping_alert</text>
</g>
<!-- ping_timeout&#45;&gt;ping_alert -->
<g id="edge11" class="edge">
<title>ping_timeout&#45;&gt;ping_alert</title>
<path fill="none" stroke="#000000" d="M1348.3381,-694C1428.843,-694 1579.521,-694 1665.5072,-694"/>
<polygon fill="#000000" stroke="#000000" points="1665.6636,-697.5001 1675.6636,-694 1665.6635,-690.5001 1665.6636,-697.5001"/>
<text text-anchor="middle" x="1543" y="-697.8" font-family="Times,serif" font-size="14.00" fill="#000000">tr_ping_timeout_max (ID=14)</text>
</g>
<!-- wifi_disconnected -->
<g id="node16" class="node">
<title>wifi_disconnected</title>
<ellipse fill="none" stroke="#000000" cx="1730" cy="-568" rx="54" ry="54"/>
<text text-anchor="middle" x="1730" y="-564.3" font-family="Times,serif" font-size="14.00" fill="#000000">wifi_disconnected</text>
</g>
<!-- wifi_alert&#45;&gt;wifi_disconnected -->
<g id="edge29" class="edge">
<title>wifi_alert&#45;&gt;wifi_disconnected</title>
<path fill="none" stroke="#000000" d="M1347.9648,-500.6709C1435.05,-497.5734 1602.4323,-494.54 1658,-514 1666.0555,-516.8211 1673.9514,-520.8968 1681.3891,-525.5635"/>
<polygon fill="#000000" stroke="#000000" points="1679.6389,-528.604 1689.892,-531.2733 1683.5413,-522.7927 1679.6389,-528.604"/>
<text text-anchor="middle" x="1543" y="-517.8" font-family="Times,serif" font-size="14.00" fill="#000000">tr_wifi_alert_end (ID=4)</text>
</g>
<!-- wifi_alert&#45;&gt;wifi_disconnected -->
<g id="edge41" class="edge">
<title>wifi_alert&#45;&gt;wifi_disconnected</title>
<path fill="none" stroke="#000000" d="M1346.9861,-514.228C1371.5542,-519.1902 1401.1882,-524.8311 1428,-529 1529.7021,-544.8134 1556.0973,-541.5355 1658,-556 1660.823,-556.4007 1663.7059,-556.8237 1666.6165,-557.2619"/>
<polygon fill="#000000" stroke="#000000" points="1666.1544,-560.732 1676.5717,-558.8004 1667.2236,-553.8141 1666.1544,-560.732"/>
<text text-anchor="middle" x="1543" y="-559.8" font-family="Times,serif" font-size="14.00" fill="#000000"> (20000ms)</text>
</g>
<!-- wifi_alert_switch -->
<g id="node17" class="node">
<title>wifi_alert_switch</title>
<ellipse fill="none" stroke="#000000" cx="1730" cy="-442" rx="54" ry="54"/>
<text text-anchor="middle" x="1730" y="-438.3" font-family="Times,serif" font-size="14.00" fill="#000000">wifi_alert_switch</text>
</g>
<!-- wifi_alert&#45;&gt;wifi_alert_switch -->
<g id="edge40" class="edge">
<title>wifi_alert&#45;&gt;wifi_alert_switch</title>
<path fill="none" stroke="#000000" d="M1346.5452,-489.729C1371.1508,-483.9032 1400.94,-477.4022 1428,-473 1509.5112,-459.7396 1604.3759,-451.0984 1665.7132,-446.3896"/>
<polygon fill="#000000" stroke="#000000" points="1666.3049,-449.8549 1676.0128,-445.6117 1665.7776,-442.8748 1666.3049,-449.8549"/>
<text text-anchor="middle" x="1543" y="-476.8" font-family="Times,serif" font-size="14.00" fill="#000000"> (250ms)</text>
</g>
<!-- ping_alert&#45;&gt;wifi_connected -->
<g id="edge10" class="edge">
<title>ping_alert&#45;&gt;wifi_connected</title>
<path fill="none" stroke="#000000" d="M1677.3304,-681.0927C1577.2146,-657.0685 1352.2592,-605.5285 1160,-579 972.3543,-553.1081 922.516,-573.8147 735,-547 607.7212,-528.7992 555.237,-563.6374 452,-487 428.5233,-469.5722 411.7654,-442.1117 400.3594,-416.8247"/>
<polygon fill="#000000" stroke="#000000" points="403.5687,-415.4278 396.3969,-407.6293 397.1402,-418.198 403.5687,-415.4278"/>
<text text-anchor="middle" x="1023.5" y="-582.8" font-family="Times,serif" font-size="14.00" fill="#000000">tr_ping_alert_end (ID=12)</text>
</g>
<!-- ping_alert&#45;&gt;ap_running -->
<g id="edge14" class="edge">
<title>ping_alert&#45;&gt;ap_running</title>
<path fill="none" stroke="#000000" d="M1771.7796,-728.274C1781.2279,-734.4808 1791.5659,-740.1855 1802,-744 1904.3032,-781.3999 1940.375,-740.3907 2046,-767 2068.8721,-772.762 2092.9695,-782.0778 2113.8665,-791.3041"/>
<polygon fill="#000000" stroke="#000000" points="2112.6718,-794.6047 2123.2267,-795.5238 2115.5488,-788.2232 2112.6718,-794.6047"/>
<text text-anchor="middle" x="1924" y="-770.8" font-family="Times,serif" font-size="14.00" fill="#000000">tr_ap_long_press (ID=15)</text>
</g>
<!-- ping_alert&#45;&gt;reboot -->
<g id="edge12" class="edge">
<title>ping_alert&#45;&gt;reboot</title>
<path fill="none" stroke="#000000" d="M1784.1984,-697.399C1938.1046,-707.051 2377.3411,-734.5972 2542.8528,-744.9771"/>
<polygon fill="#000000" stroke="#000000" points="2542.6842,-748.4733 2552.8837,-745.6062 2543.1224,-741.487 2542.6842,-748.4733"/>
<text text-anchor="middle" x="2171.5" y="-730.8" font-family="Times,serif" font-size="14.00" fill="#000000">tr_ping_timeout_max (ID=14)</text>
</g>
<!-- ping_alert&#45;&gt;reboot -->
<g id="edge36" class="edge">
<title>ping_alert&#45;&gt;reboot</title>
<path fill="none" stroke="#000000" d="M1784.2175,-692.2399C1882.8033,-689.4754 2097.974,-685.4484 2279,-696 2393.3115,-702.6629 2423.1867,-700.3161 2535,-725 2538.6227,-725.7997 2542.3195,-726.7139 2546.0302,-727.7076"/>
<polygon fill="#000000" stroke="#000000" points="2545.2679,-731.1296 2555.844,-730.4999 2547.1836,-724.3968 2545.2679,-731.1296"/>
<text text-anchor="middle" x="2171.5" y="-699.8" font-family="Times,serif" font-size="14.00" fill="#000000"> (10000ms)</text>
</g>
<!-- ping_alert&#45;&gt;ip_select -->
<g id="edge13" class="edge">
<title>ping_alert&#45;&gt;ip_select</title>
<path fill="none" stroke="#000000" d="M1767.8492,-655.3505C1773.913,-647.7156 1779.6226,-639.44 1784,-631 1798.9881,-602.1018 1782.5061,-586.0718 1802,-560 1881.0345,-454.2967 2027.4051,-390.0727 2110.2242,-360.4987"/>
<polygon fill="#000000" stroke="#000000" points="2111.4813,-363.7668 2119.7545,-357.1484 2109.1597,-357.163 2111.4813,-363.7668"/>
<text text-anchor="middle" x="1924" y="-563.8" font-family="Times,serif" font-size="14.00" fill="#000000">tr_ip_select_long_press (ID=18)</text>
</g>
<!-- ping_alert_switch -->
<g id="node10" class="node">
<title>ping_alert_switch</title>
<ellipse fill="none" stroke="#000000" cx="2171.5" cy="-592" rx="54" ry="54"/>
<text text-anchor="middle" x="2171.5" y="-588.3" font-family="Times,serif" font-size="14.00" fill="#000000">ping_alert_switch</text>
</g>
<!-- ping_alert&#45;&gt;ping_alert_switch -->
<g id="edge35" class="edge">
<title>ping_alert&#45;&gt;ping_alert_switch</title>
<path fill="none" stroke="#000000" d="M1766.2722,-653.8726C1772.4305,-646.4547 1778.5797,-638.6352 1784,-631 1793.2226,-618.0088 1788.2795,-608.0979 1802,-600 1851.9323,-570.5295 2015.5143,-578.6819 2107.3973,-586.0242"/>
<polygon fill="#000000" stroke="#000000" points="2107.1664,-589.5169 2117.4186,-586.8444 2107.7375,-582.5402 2107.1664,-589.5169"/>
<text text-anchor="middle" x="1924" y="-603.8" font-family="Times,serif" font-size="14.00" fill="#000000"> (250ms)</text>
</g>
<!-- ip_select&#45;&gt;wifi_connected -->
<g id="edge18" class="edge">
<title>ip_select&#45;&gt;wifi_connected</title>
<path fill="none" stroke="#000000" d="M2117.4505,-339.6112C2095.3059,-339.0675 2069.4244,-338.4641 2046,-338 1660.2723,-330.3574 1563.7631,-322.4219 1178,-328 855.2321,-332.6672 774.1629,-328.7035 452,-349 449.3306,-349.1682 446.6071,-349.3568 443.8569,-349.5613"/>
<polygon fill="#000000" stroke="#000000" points="443.5201,-346.077 433.831,-350.3633 444.0783,-353.0547 443.5201,-346.077"/>
<text text-anchor="middle" x="1294" y="-331.8" font-family="Times,serif" font-size="14.00" fill="#000000">tr_ip_select_long_press (ID=18)</text>
</g>
<!-- ip_select&#45;&gt;wifi_connected -->
<g id="edge37" class="edge">
<title>ip_select&#45;&gt;wifi_connected</title>
<path fill="none" stroke="#000000" d="M2117.8283,-334.6034C2095.6265,-332.1754 2069.6023,-329.6101 2046,-328 1661.0041,-301.7365 1563.838,-300.6243 1178,-307 855.2011,-312.3341 769.4156,-272.0515 452,-331 448.1581,-331.7135 444.2444,-332.5951 440.3267,-333.5964"/>
<polygon fill="#000000" stroke="#000000" points="439.3103,-330.2463 430.6186,-336.3048 441.1913,-336.9888 439.3103,-330.2463"/>
<text text-anchor="middle" x="1294" y="-310.8" font-family="Times,serif" font-size="14.00" fill="#000000"> (20000ms)</text>
</g>
<!-- ip_next -->
<g id="node11" class="node">
<title>ip_next</title>
<ellipse fill="none" stroke="#000000" cx="2607" cy="-341" rx="54" ry="54"/>
<text text-anchor="middle" x="2607" y="-337.3" font-family="Times,serif" font-size="14.00" fill="#000000">ip_next</text>
</g>
<!-- ip_select&#45;&gt;ip_next -->
<g id="edge17" class="edge">
<title>ip_select&#45;&gt;ip_next</title>
<path fill="none" stroke="#000000" d="M2225.7758,-341C2306.1884,-341 2456.6936,-341 2542.5812,-341"/>
<polygon fill="#000000" stroke="#000000" points="2542.7259,-344.5001 2552.7259,-341 2542.7259,-337.5001 2542.7259,-344.5001"/>
<text text-anchor="middle" x="2416" y="-344.8" font-family="Times,serif" font-size="14.00" fill="#000000">tr_ip_select_short_press (ID=17)</text>
</g>
<!-- ping_alert_switch&#45;&gt;ping_alert -->
<g id="edge15" class="edge">
<title>ping_alert_switch&#45;&gt;ping_alert</title>
<path fill="none" stroke="#000000" d="M2118.8498,-604.2277C2096.4647,-609.1922 2070.0305,-614.7467 2046,-619 1938.1836,-638.083 1905.6532,-617.7218 1802,-653 1796.3296,-654.9299 1790.5989,-657.3168 1784.9776,-659.9608"/>
<polygon fill="#000000" stroke="#000000" points="1783.0335,-657.0195 1775.6504,-664.6182 1786.1607,-663.2821 1783.0335,-657.0195"/>
<text text-anchor="middle" x="1924" y="-656.8" font-family="Times,serif" font-size="14.00" fill="#000000">tr_ping_alert_switch_end (ID=13)</text>
</g>
<!-- ip_next&#45;&gt;ip_select -->
<g id="edge19" class="edge">
<title>ip_next&#45;&gt;ip_select</title>
<path fill="none" stroke="#000000" d="M2555.0124,-325.5935C2548.3293,-324.1125 2541.5384,-322.8482 2535,-322 2430.1012,-308.3921 2402.4794,-314.0607 2297,-322 2276.6969,-323.5282 2254.7016,-326.4282 2234.8802,-329.5108"/>
<polygon fill="#000000" stroke="#000000" points="2234.0555,-326.0981 2224.7335,-331.1331 2235.1607,-333.0103 2234.0555,-326.0981"/>
<text text-anchor="middle" x="2416" y="-325.8" font-family="Times,serif" font-size="14.00" fill="#000000">tr_ip_select_done (ID=19)</text>
</g>
<!-- ping_sound_select&#45;&gt;wifi_connected -->
<g id="edge22" class="edge">
<title>ping_sound_select&#45;&gt;wifi_connected</title>
<path fill="none" stroke="#000000" d="M747.7276,-216.9235C650.9893,-222.2222 458.2281,-233.2144 452,-237 429.8745,-250.4483 413.6522,-273.508 402.2695,-295.7683"/>
<polygon fill="#000000" stroke="#000000" points="399.0568,-294.3719 397.8375,-304.8964 405.3538,-297.4294 399.0568,-294.3719"/>
<text text-anchor="middle" x="584.5" y="-240.8" font-family="Times,serif" font-size="14.00" fill="#000000">tr_ping_sound_long_press (ID=21)</text>
</g>
<!-- ping_sound_select&#45;&gt;wifi_connected -->
<g id="edge38" class="edge">
<title>ping_sound_select&#45;&gt;wifi_connected</title>
<path fill="none" stroke="#000000" d="M748.4974,-204.7925C662.8326,-191.2272 499.6709,-170.5809 452,-201 420.2421,-221.2649 402.2752,-259.5554 392.2314,-293.0067"/>
<polygon fill="#000000" stroke="#000000" points="388.8296,-292.1747 389.483,-302.7494 395.5666,-294.0753 388.8296,-292.1747"/>
<text text-anchor="middle" x="584.5" y="-204.8" font-family="Times,serif" font-size="14.00" fill="#000000"> (20000ms)</text>
</g>
<!-- ping_sound_switch -->
<g id="node13" class="node">
<title>ping_sound_switch</title>
<ellipse fill="none" stroke="#000000" cx="1294" cy="-182" rx="54" ry="54"/>
<text text-anchor="middle" x="1294" y="-178.3" font-family="Times,serif" font-size="14.00" fill="#000000">ping_sound_switch</text>
</g>
<!-- ping_sound_select&#45;&gt;ping_sound_switch -->
<g id="edge21" class="edge">
<title>ping_sound_select&#45;&gt;ping_sound_switch</title>
<path fill="none" stroke="#000000" d="M856.0473,-212.5113C926.2002,-210.3319 1052.3841,-205.5696 1160,-197 1182.968,-195.171 1208.0828,-192.5311 1230.2985,-189.9742"/>
<polygon fill="#000000" stroke="#000000" points="1230.7569,-193.4446 1240.2835,-188.8085 1229.9451,-186.4918 1230.7569,-193.4446"/>
<text text-anchor="middle" x="1023.5" y="-215.8" font-family="Times,serif" font-size="14.00" fill="#000000">tr_ping_sound_short_press (ID=20)</text>
</g>
<!-- ping_sound_switch&#45;&gt;ping_sound_select -->
<g id="edge23" class="edge">
<title>ping_sound_switch&#45;&gt;ping_sound_select</title>
<path fill="none" stroke="#000000" d="M1240.3167,-174.4204C1161.8075,-164.9167 1011.4772,-152.7268 887,-178 878.0037,-179.8266 868.7777,-182.6381 859.8752,-185.9024"/>
<polygon fill="#000000" stroke="#000000" points="858.4213,-182.7123 850.3682,-189.597 860.9569,-189.237 858.4213,-182.7123"/>
<text text-anchor="middle" x="1023.5" y="-181.8" font-family="Times,serif" font-size="14.00" fill="#000000">tr_ping_sound_select_done (ID=22)</text>
</g>
<!-- alert_enabled_select&#45;&gt;wifi_connected -->
<g id="edge26" class="edge">
<title>alert_enabled_select&#45;&gt;wifi_connected</title>
<path fill="none" stroke="#000000" d="M749.0989,-98.9269C738.5029,-100.8416 727.4242,-102.6497 717,-104 687.7246,-107.7922 475.114,-104.6376 452,-123 425.2685,-144.2363 403.643,-231.1847 391.299,-292.6242"/>
<polygon fill="#000000" stroke="#000000" points="387.8264,-292.1439 389.3245,-302.6323 394.694,-293.4989 387.8264,-292.1439"/>
<text text-anchor="middle" x="584.5" y="-126.8" font-family="Times,serif" font-size="14.00" fill="#000000">tr_alert_enabled_long_press (ID=24)</text>
</g>
<!-- alert_enabled_select&#45;&gt;wifi_connected -->
<g id="edge39" class="edge">
<title>alert_enabled_select&#45;&gt;wifi_connected</title>
<path fill="none" stroke="#000000" d="M751.0081,-69.8291C676.8991,-46.9729 538.8261,-18.2299 452,-85 419.403,-110.0674 398.473,-220.0711 388.0074,-291.9906"/>
<polygon fill="#000000" stroke="#000000" points="384.4826,-291.9173 386.5391,-302.3106 391.4129,-292.9034 384.4826,-291.9173"/>
<text text-anchor="middle" x="584.5" y="-88.8" font-family="Times,serif" font-size="14.00" fill="#000000"> (20000ms)</text>
</g>
<!-- alert_enabled_switch -->
<g id="node15" class="node">
<title>alert_enabled_switch</title>
<ellipse fill="none" stroke="#000000" cx="1294" cy="-54" rx="54" ry="54"/>
<text text-anchor="middle" x="1294" y="-50.3" font-family="Times,serif" font-size="14.00" fill="#000000">alert_enabled_switch</text>
</g>
<!-- alert_enabled_select&#45;&gt;alert_enabled_switch -->
<g id="edge25" class="edge">
<title>alert_enabled_select&#45;&gt;alert_enabled_switch</title>
<path fill="none" stroke="#000000" d="M856.0111,-85.152C926.1254,-81.3467 1052.268,-74.1324 1160,-66 1182.9241,-64.2695 1208.0287,-62.0958 1230.2486,-60.0756"/>
<polygon fill="#000000" stroke="#000000" points="1230.5976,-63.5583 1240.2365,-59.1602 1229.9588,-56.5875 1230.5976,-63.5583"/>
<text text-anchor="middle" x="1023.5" y="-87.8" font-family="Times,serif" font-size="14.00" fill="#000000">tr_alert_enabled_short_press (ID=23)</text>
</g>
<!-- alert_enabled_switch&#45;&gt;alert_enabled_select -->
<g id="edge27" class="edge">
<title>alert_enabled_switch&#45;&gt;alert_enabled_select</title>
<path fill="none" stroke="#000000" d="M1240.474,-45.0209C1161.8444,-33.6307 1011.008,-18.6548 887,-47 877.297,-49.2179 867.4125,-52.692 857.979,-56.7012"/>
<polygon fill="#000000" stroke="#000000" points="856.4062,-53.5708 848.7193,-60.8621 859.2753,-59.9558 856.4062,-53.5708"/>
<text text-anchor="middle" x="1023.5" y="-50.8" font-family="Times,serif" font-size="14.00" fill="#000000">tr_alert_enabled_select_done (ID=25)</text>
</g>
<!-- wifi_disconnected&#45;&gt;wifi_connected -->
<g id="edge31" class="edge">
<title>wifi_disconnected&#45;&gt;wifi_connected</title>
<path fill="none" stroke="#000000" d="M1692.3887,-529.2245C1686.3007,-521.6024 1680.5214,-513.3638 1676,-505 1662.3548,-479.7588 1680.5528,-460.7392 1658,-443 1605.2856,-401.5368 517.1884,-404.7631 452,-389 447.1133,-387.8184 442.1539,-386.3011 437.242,-384.5682"/>
<polygon fill="#000000" stroke="#000000" points="438.4775,-381.2936 427.8867,-381.0015 435.9838,-387.8343 438.4775,-381.2936"/>
<text text-anchor="middle" x="1023.5" y="-411.8" font-family="Times,serif" font-size="14.00" fill="#000000">tr_wifi_reconnected (ID=6)</text>
</g>
<!-- wifi_disconnected&#45;&gt;reboot -->
<g id="edge42" class="edge">
<title>wifi_disconnected&#45;&gt;reboot</title>
<path fill="none" stroke="#000000" d="M1772.0413,-533.5676C1781.3933,-527.6249 1791.6269,-522.3036 1802,-519 2004.0142,-454.6635 2076.7798,-450.314 2279,-514 2394.6566,-550.4242 2503.8673,-645.0311 2562.4719,-702.4865"/>
<polygon fill="#000000" stroke="#000000" points="2560.1396,-705.1025 2569.7103,-709.6472 2565.0626,-700.1261 2560.1396,-705.1025"/>
<text text-anchor="middle" x="2171.5" y="-517.8" font-family="Times,serif" font-size="14.00" fill="#000000"> (10000ms)</text>
</g>
<!-- wifi_alert_switch&#45;&gt;wifi_alert -->
<g id="edge30" class="edge">
<title>wifi_alert_switch&#45;&gt;wifi_alert</title>
<path fill="none" stroke="#000000" d="M1677.1601,-429.819C1616.0709,-417.9121 1513.02,-404.5682 1428,-427 1398.98,-434.6567 1369.6534,-450.2044 1345.8653,-465.2538"/>
<polygon fill="#000000" stroke="#000000" points="1343.8537,-462.3866 1337.3627,-470.7602 1347.6588,-468.2621 1343.8537,-462.3866"/>
<text text-anchor="middle" x="1543" y="-430.8" font-family="Times,serif" font-size="14.00" fill="#000000">tr_wifi_alert_switch_end (ID=5)</text>
</g>
</g>

<g transform="translate(0.000000,17.000000) scale(0.100000,-0.100000)"
fill="#000000" stroke="none">
<path d="M21 157 c-29 -35 -16 -97 20 -97 15 0 19 -5 15 -16 -3 -9 -6 -20 -6
-25 0 -5 -4 -9 -10 -9 -14 0 -12 27 3 33 6 3 2 6 -10 6 -30 1 -31 -35 -3 -44
28 -9 47 9 55 51 3 20 9 42 12 50 3 8 -1 14 -11 14 -9 0 -16 -8 -16 -19 0 -26
-15 -34 -30 -16 -13 16 -6 48 16 70 14 13 13 15 -4 15 -11 0 -25 -6 -31 -13z"/>
<path d="M80 150 c0 -13 5 -20 13 -17 6 2 12 10 12 17 0 7 -6 15 -12 18 -8 2
-13 -5 -13 -18z"/>
<path d="M347 164 c-13 -13 -7 -24 14 -24 11 0 19 5 17 12 -5 14 -22 21 -31
12z"/>
<path d="M103 85 c-9 -40 -8 -45 8 -45 13 0 19 9 21 33 2 24 7 31 21 29 10 -2
17 3 17 13 0 10 -9 15 -28 15 -26 0 -30 -5 -39 -45z"/>
<path d="M175 101 c-24 -48 -13 -59 64 -60 63 -1 69 1 79 25 15 31 15 64 1 64
-6 0 -8 -8 -5 -18 4 -10 -1 -27 -10 -38 -14 -18 -15 -17 -9 19 5 29 3 37 -9
37 -9 0 -18 -13 -22 -35 -3 -19 -10 -35 -14 -35 -4 0 -4 16 0 35 8 35 8 35
-26 35 -27 0 -36 -6 -49 -29z m47 -6 c-5 -28 -22 -44 -22 -21 0 21 11 46 20
46 4 0 5 -11 2 -25z"/>
<path d="M340 116 c0 -7 -3 -28 -6 -45 -6 -26 -3 -31 13 -31 10 0 25 6 32 12
11 10 13 10 7 1 -5 -9 3 -13 28 -13 25 0 36 4 36 15 0 8 -4 15 -10 15 -5 0
-10 -4 -10 -10 0 -5 -5 -10 -11 -10 -6 0 -2 12 9 28 36 51 36 52 -2 52 -25 0
-36 -4 -36 -15 0 -8 5 -15 10 -15 6 0 10 5 10 12 0 6 3 9 6 6 9 -10 -19 -46
-39 -52 -17 -4 -18 -1 -13 30 6 27 4 34 -9 34 -8 0 -15 -6 -15 -14z"/>
<path d="M472 118 c-7 -7 -12 -27 -12 -46 0 -30 2 -33 27 -30 17 2 32 12 39
27 7 13 18 28 26 33 10 8 9 8 -4 4 -12 -3 -18 0 -18 9 0 18 -41 20 -58 3z m29
-51 c-13 -13 -15 11 -4 40 7 16 8 15 11 -6 2 -13 -1 -28 -7 -34z"/>
</g>
</svg>
