<?xml version="1.0" encoding="UTF-8" standalone="no"?>
<!DOCTYPE svg PUBLIC "-//W3C//DTD SVG 1.1//EN"
 "http://www.w3.org/Graphics/SVG/1.1/DTD/svg11.dtd">
<!-- Generated by graphviz version 2.40.1 (20161225.0304)
 -->
<!-- Title: G Pages: 1 -->
<svg width="2249pt" height="972pt"
 viewBox="0.00 0.00 2249.00 972.28" xmlns="http://www.w3.org/2000/svg" xmlns:xlink="http://www.w3.org/1999/xlink">
<g id="graph0" class="graph" transform="scale(1 1) rotate(0) translate(36 936.2837)">
<title>G</title>
<polygon fill="#ffffff" stroke="transparent" points="-36,36 -36,-936.2837 2213,-936.2837 2213,36 -36,36"/>
<!-- boot -->
<g id="node1" class="node">
<title>boot</title>
<ellipse fill="#000000" stroke="#000000" cx="54" cy="-619.2837" rx="54" ry="54"/>
<text text-anchor="middle" x="54" y="-615.5837" font-family="Times,serif" font-size="14.00" fill="#ffffff">boot</text>
</g>
<!-- wifi_connected -->
<g id="node2" class="node">
<title>wifi_connected</title>
<ellipse fill="none" stroke="#000000" cx="380" cy="-441.2837" rx="54" ry="54"/>
<text text-anchor="middle" x="380" y="-437.5837" font-family="Times,serif" font-size="14.00" fill="#000000">wifi_connected</text>
</g>
<!-- boot&#45;&gt;wifi_connected -->
<g id="edge1" class="edge">
<title>boot&#45;&gt;wifi_connected</title>
<path fill="none" stroke="#000000" d="M101.4032,-593.4009C160.3133,-561.2353 260.7269,-506.4082 323.5524,-472.1047"/>
<polygon fill="#000000" stroke="#000000" points="325.44,-475.0619 332.5396,-467.1976 322.0854,-468.9181 325.44,-475.0619"/>
<text text-anchor="middle" x="217" y="-579.0837" font-family="Times,serif" font-size="14.00" fill="#000000">tr_wifi_connected (ID=1)</text>
</g>
<!-- ap_running -->
<g id="node3" class="node">
<title>ap_running</title>
<ellipse fill="none" stroke="#000000" cx="1740.5" cy="-559.2837" rx="54" ry="54"/>
<text text-anchor="middle" x="1740.5" y="-555.5837" font-family="Times,serif" font-size="14.00" fill="#000000">ap_running</text>
</g>
<!-- boot&#45;&gt;ap_running -->
<g id="edge2" class="edge">
<title>boot&#45;&gt;ap_running</title>
<path fill="none" stroke="#000000" d="M100.6993,-646.5499C273.7156,-743.6334 886.3665,-1051.9058 1239,-768.2837 1268.0749,-744.8988 1230.8067,-712.8564 1257,-686.2837 1371.7301,-569.8915 1457.9452,-647.4932 1615,-602.2837 1636.3997,-596.1236 1659.5368,-588.4829 1680.0464,-581.3586"/>
<polygon fill="#000000" stroke="#000000" points="1681.295,-584.6298 1689.5757,-578.0206 1678.9808,-578.0234 1681.295,-584.6298"/>
<text text-anchor="middle" x="841.5" y="-889.0837" font-family="Times,serif" font-size="14.00" fill="#000000">tr_wifi_not_connected (ID=2)</text>
</g>
<!-- wifi_connected&#45;&gt;ap_running -->
<g id="edge6" class="edge">
<title>wifi_connected&#45;&gt;ap_running</title>
<path fill="none" stroke="#000000" d="M391.4698,-494.3323C401.5861,-527.717 419.9002,-568.6355 452,-591.2837 555.3481,-664.2014 608.6938,-614.6077 735,-621.2837 1091.1158,-640.1063 1517.8205,-589.614 1676.7578,-568.2817"/>
<polygon fill="#000000" stroke="#000000" points="1677.3947,-571.7275 1686.8359,-566.9198 1676.4572,-564.7906 1677.3947,-571.7275"/>
<text text-anchor="middle" x="1102.5" y="-628.0837" font-family="Times,serif" font-size="14.00" fill="#000000">tr_ap_long_press (ID=13)</text>
</g>
<!-- ping -->
<g id="node5" class="node">
<title>ping</title>
<ellipse fill="none" stroke="#000000" cx="841.5" cy="-558.2837" rx="54" ry="54"/>
<text text-anchor="middle" x="841.5" y="-554.5837" font-family="Times,serif" font-size="14.00" fill="#000000">ping</text>
</g>
<!-- wifi_connected&#45;&gt;ping -->
<g id="edge28" class="edge">
<title>wifi_connected&#45;&gt;ping</title>
<path fill="none" stroke="#000000" d="M424.1474,-472.5869C433.0205,-477.6106 442.5365,-482.1732 452,-485.2837 564.3094,-522.1983 602.0077,-480.845 717,-508.2837 739.2998,-513.6047 762.8559,-522.2252 783.4059,-530.8215"/>
<polygon fill="#000000" stroke="#000000" points="782.0499,-534.0481 792.621,-534.7574 784.7995,-527.6107 782.0499,-534.0481"/>
<text text-anchor="middle" x="584.5" y="-512.0837" font-family="Times,serif" font-size="14.00" fill="#000000"> (10000ms)</text>
</g>
<!-- wifi_alert -->
<g id="node7" class="node">
<title>wifi_alert</title>
<ellipse fill="none" stroke="#000000" cx="1311" cy="-749.2837" rx="54" ry="54"/>
<text text-anchor="middle" x="1311" y="-745.5837" font-family="Times,serif" font-size="14.00" fill="#000000">wifi_alert</text>
</g>
<!-- wifi_connected&#45;&gt;wifi_alert -->
<g id="edge23" class="edge">
<title>wifi_connected&#45;&gt;wifi_alert</title>
<path fill="none" stroke="#000000" d="M391.0089,-494.3098C403.8425,-550.6122 426.5655,-634.2145 452,-654.2837 520.9344,-708.6765 1152.9445,-708.82 1239,-726.2837 1242.6209,-727.0185 1246.3163,-727.8699 1250.026,-728.8033"/>
<polygon fill="#000000" stroke="#000000" points="1249.2719,-732.2248 1259.8378,-731.4422 1251.09,-725.465 1249.2719,-732.2248"/>
<text text-anchor="middle" x="841.5" y="-712.0837" font-family="Times,serif" font-size="14.00" fill="#000000">tr_wifi_lost (ID=3)</text>
</g>
<!-- ip_select -->
<g id="node8" class="node">
<title>ip_select</title>
<ellipse fill="none" stroke="#000000" cx="1740.5" cy="-173.2837" rx="54" ry="54"/>
<text text-anchor="middle" x="1740.5" y="-169.5837" font-family="Times,serif" font-size="14.00" fill="#000000">ip_select</text>
</g>
<!-- wifi_connected&#45;&gt;ip_select -->
<g id="edge14" class="edge">
<title>wifi_connected&#45;&gt;ip_select</title>
<path fill="none" stroke="#000000" d="M388.6398,-387.8107C400.1012,-324.298 422.3872,-224.0566 452,-201.2837 549.4278,-126.3594 1428.7765,-159.4208 1676.0666,-170.2968"/>
<polygon fill="#000000" stroke="#000000" points="1676.1819,-173.8053 1686.3271,-170.7513 1676.4918,-166.8121 1676.1819,-173.8053"/>
<text text-anchor="middle" x="1102.5" y="-160.0837" font-family="Times,serif" font-size="14.00" fill="#000000">tr_ip_select_long_press (ID=16)</text>
</g>
<!-- ping_sound_select -->
<g id="node9" class="node">
<title>ping_sound_select</title>
<ellipse fill="none" stroke="#000000" cx="841.5" cy="-381.2837" rx="54" ry="54"/>
<text text-anchor="middle" x="841.5" y="-377.5837" font-family="Times,serif" font-size="14.00" fill="#000000">ping_sound_select</text>
</g>
<!-- wifi_connected&#45;&gt;ping_sound_select -->
<g id="edge15" class="edge">
<title>wifi_connected&#45;&gt;ping_sound_select</title>
<path fill="none" stroke="#000000" d="M426.8956,-413.7015C435.0379,-409.9362 443.5949,-406.5813 452,-404.2837 511.4197,-388.0408 683.0022,-383.2684 777.3865,-381.8665"/>
<polygon fill="#000000" stroke="#000000" points="777.4373,-385.3663 787.3872,-381.7263 777.3391,-378.3669 777.4373,-385.3663"/>
<text text-anchor="middle" x="584.5" y="-408.0837" font-family="Times,serif" font-size="14.00" fill="#000000">tr_ping_sound_long_press (ID=19)</text>
</g>
<!-- alert_enabled_select -->
<g id="node11" class="node">
<title>alert_enabled_select</title>
<ellipse fill="none" stroke="#000000" cx="841.5" cy="-255.2837" rx="54" ry="54"/>
<text text-anchor="middle" x="841.5" y="-251.5837" font-family="Times,serif" font-size="14.00" fill="#000000">alert_enabled_select</text>
</g>
<!-- wifi_connected&#45;&gt;alert_enabled_select -->
<g id="edge19" class="edge">
<title>wifi_connected&#45;&gt;alert_enabled_select</title>
<path fill="none" stroke="#000000" d="M391.1222,-388.0585C401.1141,-354.3014 419.4206,-312.8712 452,-290.2837 500.5773,-256.6047 658.1361,-272.6748 717,-267.2837 736.7034,-265.4791 758.153,-263.4389 777.6097,-261.5594"/>
<polygon fill="#000000" stroke="#000000" points="777.9669,-265.0413 787.5828,-260.5933 777.2919,-258.0739 777.9669,-265.0413"/>
<text text-anchor="middle" x="584.5" y="-294.0837" font-family="Times,serif" font-size="14.00" fill="#000000">tr_alert_enabled_long_press (ID=22)</text>
</g>
<!-- ap_running&#45;&gt;ap_running -->
<g id="edge5" class="edge">
<title>ap_running&#45;&gt;ap_running</title>
<path fill="none" stroke="#000000" d="M1700.8325,-596.3291C1695.3439,-614.8042 1708.5664,-631.2837 1740.5,-631.2837 1766.446,-631.2837 1780.0398,-620.4046 1781.2814,-606.4154"/>
<polygon fill="#000000" stroke="#000000" points="1784.7441,-605.8845 1780.1675,-596.3291 1777.7864,-606.6529 1784.7441,-605.8845"/>
<text text-anchor="middle" x="1740.5" y="-635.0837" font-family="Times,serif" font-size="14.00" fill="#000000">tr_ap_config_err (ID=8)</text>
</g>
<!-- reboot -->
<g id="node4" class="node">
<title>reboot</title>
<ellipse fill="none" stroke="#000000" cx="2123" cy="-559.2837" rx="54" ry="54"/>
<text text-anchor="middle" x="2123" y="-555.5837" font-family="Times,serif" font-size="14.00" fill="#000000">reboot</text>
</g>
<!-- ap_running&#45;&gt;reboot -->
<g id="edge3" class="edge">
<title>ap_running&#45;&gt;reboot</title>
<path fill="none" stroke="#000000" d="M1794.8967,-559.2837C1864.4333,-559.2837 1984.6577,-559.2837 2058.665,-559.2837"/>
<polygon fill="#000000" stroke="#000000" points="2058.791,-562.7838 2068.7909,-559.2837 2058.7909,-555.7838 2058.791,-562.7838"/>
<text text-anchor="middle" x="1958.5" y="-563.0837" font-family="Times,serif" font-size="14.00" fill="#000000">trp_config_ok (ID=7)</text>
</g>
<!-- ap_running&#45;&gt;reboot -->
<g id="edge4" class="edge">
<title>ap_running&#45;&gt;reboot</title>
<path fill="none" stroke="#000000" d="M1793.7335,-549.4168C1815.9821,-545.7646 1842.1579,-542.0782 1866,-540.2837 1947.9903,-534.1124 1969.461,-529.7061 2051,-540.2837 2054.2692,-540.7078 2057.6015,-541.2359 2060.952,-541.8431"/>
<polygon fill="#000000" stroke="#000000" points="2060.5171,-545.326 2071.0124,-543.8772 2061.9044,-538.4648 2060.5171,-545.326"/>
<text text-anchor="middle" x="1958.5" y="-544.0837" font-family="Times,serif" font-size="14.00" fill="#000000">tr_ap_long_press (ID=13)</text>
</g>
<!-- ap_running&#45;&gt;reboot -->
<g id="edge27" class="edge">
<title>ap_running&#45;&gt;reboot</title>
<path fill="none" stroke="#000000" d="M1794.0997,-567.6364C1816.2906,-570.6981 1842.3259,-573.7806 1866,-575.2837 1948.057,-580.4933 1969.2687,-584.2555 2051,-575.2837 2054.0827,-574.9453 2057.2265,-574.5277 2060.3923,-574.049"/>
<polygon fill="#000000" stroke="#000000" points="2061.2538,-577.4531 2070.5298,-572.3339 2060.0861,-570.5511 2061.2538,-577.4531"/>
<text text-anchor="middle" x="1958.5" y="-584.0837" font-family="Times,serif" font-size="14.00" fill="#000000"> (180000ms)</text>
</g>
<!-- ping&#45;&gt;wifi_connected -->
<g id="edge8" class="edge">
<title>ping&#45;&gt;wifi_connected</title>
<path fill="none" stroke="#000000" d="M787.9111,-566.4813C709.3952,-575.8484 560.6472,-583.3777 452,-527.2837 437.5282,-519.812 424.8271,-508.0424 414.2845,-495.5809"/>
<polygon fill="#000000" stroke="#000000" points="416.9953,-493.3667 408.0027,-487.7647 411.5391,-497.7519 416.9953,-493.3667"/>
<text text-anchor="middle" x="584.5" y="-576.0837" font-family="Times,serif" font-size="14.00" fill="#000000">tr_ping_ok (ID=10)</text>
</g>
<!-- ping_alert -->
<g id="node6" class="node">
<title>ping_alert</title>
<ellipse fill="none" stroke="#000000" cx="1311" cy="-509.2837" rx="54" ry="54"/>
<text text-anchor="middle" x="1311" y="-505.5837" font-family="Times,serif" font-size="14.00" fill="#000000">ping_alert</text>
</g>
<!-- ping&#45;&gt;ping_alert -->
<g id="edge7" class="edge">
<title>ping&#45;&gt;ping_alert</title>
<path fill="none" stroke="#000000" d="M895.7847,-559.6701C972.8805,-560.5891 1118.1546,-558.4346 1239,-534.2837 1242.8318,-533.5179 1246.7377,-532.5961 1250.6496,-531.5645"/>
<polygon fill="#000000" stroke="#000000" points="1251.6895,-534.9076 1260.347,-528.8003 1249.7706,-528.1757 1251.6895,-534.9076"/>
<text text-anchor="middle" x="1102.5" y="-563.0837" font-family="Times,serif" font-size="14.00" fill="#000000">tr_ping_timeout (ID=9)</text>
</g>
<!-- ping&#45;&gt;wifi_alert -->
<g id="edge9" class="edge">
<title>ping&#45;&gt;wifi_alert</title>
<path fill="none" stroke="#000000" d="M881.5879,-594.5073C904.5935,-613.0696 935.0031,-634.0748 966,-645.2837 1080.5064,-686.6908 1130.1165,-613.78 1239,-668.2837 1252.2601,-674.9212 1264.1797,-685.149 1274.3274,-696.1272"/>
<polygon fill="#000000" stroke="#000000" points="1271.8405,-698.5999 1281.0643,-703.8126 1277.1044,-693.9856 1271.8405,-698.5999"/>
<text text-anchor="middle" x="1102.5" y="-672.0837" font-family="Times,serif" font-size="14.00" fill="#000000">tr_wifi_lost (ID=3)</text>
</g>
<!-- ping_alert&#45;&gt;wifi_connected -->
<g id="edge10" class="edge">
<title>ping_alert&#45;&gt;wifi_connected</title>
<path fill="none" stroke="#000000" d="M1257.6161,-499.7345C1251.3541,-498.8078 1245.0448,-497.962 1239,-497.2837 1110.2543,-482.836 1077.3764,-487.0621 948,-480.2837 727.6209,-468.7373 670.7469,-486.4392 452,-457.2837 448.926,-456.874 445.7892,-456.3986 442.6291,-455.8736"/>
<polygon fill="#000000" stroke="#000000" points="442.9674,-452.3782 432.505,-454.0479 441.725,-459.2671 442.9674,-452.3782"/>
<text text-anchor="middle" x="841.5" y="-484.0837" font-family="Times,serif" font-size="14.00" fill="#000000">tr_ping_alert_end (ID=11)</text>
</g>
<!-- ping_alert&#45;&gt;ap_running -->
<g id="edge13" class="edge">
<title>ping_alert&#45;&gt;ap_running</title>
<path fill="none" stroke="#000000" d="M1364.9616,-515.5656C1444.3094,-524.8028 1592.1828,-542.0174 1676.7667,-551.8642"/>
<polygon fill="#000000" stroke="#000000" points="1676.4215,-555.3476 1686.7592,-553.0275 1677.231,-548.3945 1676.4215,-555.3476"/>
<text text-anchor="middle" x="1499" y="-548.0837" font-family="Times,serif" font-size="14.00" fill="#000000">tr_ap_long_press (ID=13)</text>
</g>
<!-- ping_alert&#45;&gt;reboot -->
<g id="edge11" class="edge">
<title>ping_alert&#45;&gt;reboot</title>
<path fill="none" stroke="#000000" d="M1364.5436,-500.5631C1461.3538,-486.1132 1671.8179,-460.7375 1848,-481.2837 1940.086,-492.0226 1962.8083,-500.6937 2051,-529.2837 2055.2449,-530.6598 2059.59,-532.1787 2063.9392,-533.7809"/>
<polygon fill="#000000" stroke="#000000" points="2062.8385,-537.107 2073.4294,-537.3982 2065.3317,-530.566 2062.8385,-537.107"/>
<text text-anchor="middle" x="1740.5" y="-485.0837" font-family="Times,serif" font-size="14.00" fill="#000000">tr_ping_timeout_max (ID=12)</text>
</g>
<!-- ping_alert&#45;&gt;ping -->
<g id="edge29" class="edge">
<title>ping_alert&#45;&gt;ping</title>
<path fill="none" stroke="#000000" d="M1257.0122,-505.0225C1188.6751,-500.8144 1067.6107,-497.321 966,-515.2837 944.2276,-519.1326 921.142,-526.2079 900.8409,-533.5235"/>
<polygon fill="#000000" stroke="#000000" points="899.5875,-530.2553 891.4213,-537.0055 902.0145,-536.8211 899.5875,-530.2553"/>
<text text-anchor="middle" x="1102.5" y="-519.0837" font-family="Times,serif" font-size="14.00" fill="#000000"> (3000ms)</text>
</g>
<!-- ping_alert&#45;&gt;ip_select -->
<g id="edge12" class="edge">
<title>ping_alert&#45;&gt;ip_select</title>
<path fill="none" stroke="#000000" d="M1350.3848,-471.9376C1360.8139,-462.3943 1372.1847,-452.2902 1383,-443.2837 1487.959,-355.8783 1617.1472,-261.3357 1687.9324,-210.5784"/>
<polygon fill="#000000" stroke="#000000" points="1690.1764,-213.2763 1696.2696,-204.6089 1686.1013,-207.5848 1690.1764,-213.2763"/>
<text text-anchor="middle" x="1499" y="-447.0837" font-family="Times,serif" font-size="14.00" fill="#000000">tr_ip_select_long_press (ID=16)</text>
</g>
<!-- wifi_disconnected -->
<g id="node13" class="node">
<title>wifi_disconnected</title>
<ellipse fill="none" stroke="#000000" cx="1740.5" cy="-844.2837" rx="54" ry="54"/>
<text text-anchor="middle" x="1740.5" y="-840.5837" font-family="Times,serif" font-size="14.00" fill="#000000">wifi_disconnected</text>
</g>
<!-- wifi_alert&#45;&gt;wifi_disconnected -->
<g id="edge24" class="edge">
<title>wifi_alert&#45;&gt;wifi_disconnected</title>
<path fill="none" stroke="#000000" d="M1365.0627,-753.0937C1446.011,-758.9756 1591.7404,-770.3146 1615,-777.2837 1639.6355,-784.665 1664.9929,-797.126 1686.4092,-809.3133"/>
<polygon fill="#000000" stroke="#000000" points="1684.9289,-812.5013 1695.3328,-814.5041 1688.4487,-806.4505 1684.9289,-812.5013"/>
<text text-anchor="middle" x="1499" y="-781.0837" font-family="Times,serif" font-size="14.00" fill="#000000">tr_wifi_alert_end (ID=4)</text>
</g>
<!-- wifi_alert&#45;&gt;wifi_disconnected -->
<g id="edge34" class="edge">
<title>wifi_alert&#45;&gt;wifi_disconnected</title>
<path fill="none" stroke="#000000" d="M1355.6379,-779.9929C1364.3894,-784.8266 1373.736,-789.2281 1383,-792.2837 1481.4022,-824.7397 1512.7561,-798.4737 1615,-815.2837 1635.6701,-818.6821 1658.0169,-823.4763 1678.0456,-828.1898"/>
<polygon fill="#000000" stroke="#000000" points="1677.4396,-831.6435 1687.9794,-830.5649 1679.0674,-824.8354 1677.4396,-831.6435"/>
<text text-anchor="middle" x="1499" y="-819.0837" font-family="Times,serif" font-size="14.00" fill="#000000"> (20000ms)</text>
</g>
<!-- wifi_alert_switch -->
<g id="node14" class="node">
<title>wifi_alert_switch</title>
<ellipse fill="none" stroke="#000000" cx="1740.5" cy="-718.2837" rx="54" ry="54"/>
<text text-anchor="middle" x="1740.5" y="-714.5837" font-family="Times,serif" font-size="14.00" fill="#000000">wifi_alert_switch</text>
</g>
<!-- wifi_alert&#45;&gt;wifi_alert_switch -->
<g id="edge33" class="edge">
<title>wifi_alert&#45;&gt;wifi_alert_switch</title>
<path fill="none" stroke="#000000" d="M1364.8076,-741.3356C1370.9351,-740.5716 1377.0973,-739.866 1383,-739.2837 1485.3169,-729.1893 1604.622,-723.3734 1676.2738,-720.5207"/>
<polygon fill="#000000" stroke="#000000" points="1676.6363,-724.0093 1686.4919,-720.1211 1676.3627,-717.0146 1676.6363,-724.0093"/>
<text text-anchor="middle" x="1499" y="-743.0837" font-family="Times,serif" font-size="14.00" fill="#000000"> (250ms)</text>
</g>
<!-- ip_select&#45;&gt;wifi_connected -->
<g id="edge30" class="edge">
<title>ip_select&#45;&gt;wifi_connected</title>
<path fill="none" stroke="#000000" d="M1690.4046,-152.5859C1502.5928,-78.65 831.6695,152.0537 452,-156.2837 418.0897,-183.8229 397.3344,-301.9851 387.3047,-377.2477"/>
<polygon fill="#000000" stroke="#000000" points="383.7813,-377.2007 385.9603,-387.569 390.7227,-378.1048 383.7813,-377.2007"/>
<text text-anchor="middle" x="1102.5" y="-29.0837" font-family="Times,serif" font-size="14.00" fill="#000000"> (20000ms)</text>
</g>
<!-- ping_sound_select&#45;&gt;wifi_connected -->
<g id="edge17" class="edge">
<title>ping_sound_select&#45;&gt;wifi_connected</title>
<path fill="none" stroke="#000000" d="M787.8503,-373.2183C695.5014,-360.2769 510.753,-338.7847 452,-364.2837 439.1658,-369.8538 427.5762,-378.9634 417.6324,-389.0019"/>
<polygon fill="#000000" stroke="#000000" points="414.9552,-386.7407 410.6884,-396.4384 420.0715,-391.5182 414.9552,-386.7407"/>
<text text-anchor="middle" x="584.5" y="-368.0837" font-family="Times,serif" font-size="14.00" fill="#000000">tr_ping_sound_long_press (ID=19)</text>
</g>
<!-- ping_sound_select&#45;&gt;wifi_connected -->
<g id="edge31" class="edge">
<title>ping_sound_select&#45;&gt;wifi_connected</title>
<path fill="none" stroke="#000000" d="M790.6713,-399.7073C768.3601,-407.0322 741.6764,-414.7751 717,-419.2837 623.1886,-436.4237 512.546,-440.6646 444.3288,-441.4784"/>
<polygon fill="#000000" stroke="#000000" points="444.1317,-437.9801 434.1665,-441.5779 444.2003,-444.9798 444.1317,-437.9801"/>
<text text-anchor="middle" x="584.5" y="-445.0837" font-family="Times,serif" font-size="14.00" fill="#000000"> (20000ms)</text>
</g>
<!-- ping_sound_switch -->
<g id="node10" class="node">
<title>ping_sound_switch</title>
<ellipse fill="none" stroke="#000000" cx="1311" cy="-383.2837" rx="54" ry="54"/>
<text text-anchor="middle" x="1311" y="-379.5837" font-family="Times,serif" font-size="14.00" fill="#000000">ping_sound_switch</text>
</g>
<!-- ping_sound_select&#45;&gt;ping_sound_switch -->
<g id="edge16" class="edge">
<title>ping_sound_select&#45;&gt;ping_sound_switch</title>
<path fill="none" stroke="#000000" d="M895.3591,-375.4816C917.2495,-373.3958 942.8048,-371.3064 966,-370.2837 1087.2156,-364.9392 1118.1503,-359.4611 1239,-370.2837 1241.9059,-370.5439 1244.8699,-370.8621 1247.8583,-371.2257"/>
<polygon fill="#000000" stroke="#000000" points="1247.6817,-374.734 1258.0633,-372.6191 1248.6287,-367.7984 1247.6817,-374.734"/>
<text text-anchor="middle" x="1102.5" y="-374.0837" font-family="Times,serif" font-size="14.00" fill="#000000">tr_ping_sound_short_press (ID=18)</text>
</g>
<!-- ping_sound_switch&#45;&gt;ping_sound_select -->
<g id="edge18" class="edge">
<title>ping_sound_switch&#45;&gt;ping_sound_select</title>
<path fill="none" stroke="#000000" d="M1256.7498,-384.9519C1250.761,-385.0881 1244.7517,-385.2038 1239,-385.2837 1117.6784,-386.9684 1087.3177,-387.232 966,-385.2837 946.4798,-384.9702 925.2447,-384.3804 905.9316,-383.7481"/>
<polygon fill="#000000" stroke="#000000" points="905.838,-380.2431 895.7259,-383.4044 905.6024,-387.2391 905.838,-380.2431"/>
<text text-anchor="middle" x="1102.5" y="-390.0837" font-family="Times,serif" font-size="14.00" fill="#000000">tr_ping_sound_select_done (ID=20)</text>
</g>
<!-- alert_enabled_select&#45;&gt;wifi_connected -->
<g id="edge21" class="edge">
<title>alert_enabled_select&#45;&gt;wifi_connected</title>
<path fill="none" stroke="#000000" d="M790.3322,-236.9902C710.2916,-211.8855 554.0841,-177.4105 452,-248.2837 429.7608,-263.7235 408.6426,-328.4097 395.0985,-378.6899"/>
<polygon fill="#000000" stroke="#000000" points="391.6679,-377.9723 392.4925,-388.535 398.4349,-379.7635 391.6679,-377.9723"/>
<text text-anchor="middle" x="584.5" y="-252.0837" font-family="Times,serif" font-size="14.00" fill="#000000">tr_alert_enabled_long_press (ID=22)</text>
</g>
<!-- alert_enabled_select&#45;&gt;wifi_connected -->
<g id="edge32" class="edge">
<title>alert_enabled_select&#45;&gt;wifi_connected</title>
<path fill="none" stroke="#000000" d="M792.5666,-278.5867C770.0357,-288.357 742.6566,-298.9076 717,-305.2837 659.5313,-319.5655 502.6675,-302.6337 452,-333.2837 432.7748,-344.9135 417.6031,-363.8676 406.2438,-382.6764"/>
<polygon fill="#000000" stroke="#000000" points="403.0798,-381.1577 401.1327,-391.5721 409.1493,-384.645 403.0798,-381.1577"/>
<text text-anchor="middle" x="584.5" y="-337.0837" font-family="Times,serif" font-size="14.00" fill="#000000"> (20000ms)</text>
</g>
<!-- alert_enabled_switch -->
<g id="node12" class="node">
<title>alert_enabled_switch</title>
<ellipse fill="none" stroke="#000000" cx="1311" cy="-256.2837" rx="54" ry="54"/>
<text text-anchor="middle" x="1311" y="-252.5837" font-family="Times,serif" font-size="14.00" fill="#000000">alert_enabled_switch</text>
</g>
<!-- alert_enabled_select&#45;&gt;alert_enabled_switch -->
<g id="edge20" class="edge">
<title>alert_enabled_select&#45;&gt;alert_enabled_switch</title>
<path fill="none" stroke="#000000" d="M894.9578,-246.3642C916.9018,-243.126 942.6027,-239.8737 966,-238.2837 1087.0541,-230.0571 1118.5757,-223.4588 1239,-238.2837 1242.261,-238.6851 1245.5867,-239.1852 1248.9319,-239.7602"/>
<polygon fill="#000000" stroke="#000000" points="1248.5005,-243.2412 1258.9807,-241.6868 1249.8186,-236.3664 1248.5005,-243.2412"/>
<text text-anchor="middle" x="1102.5" y="-242.0837" font-family="Times,serif" font-size="14.00" fill="#000000">tr_alert_enabled_short_press (ID=21)</text>
</g>
<!-- alert_enabled_switch&#45;&gt;alert_enabled_select -->
<g id="edge22" class="edge">
<title>alert_enabled_switch&#45;&gt;alert_enabled_select</title>
<path fill="none" stroke="#000000" d="M1256.8106,-256.1683C1169.761,-255.9828 999.1243,-255.6194 905.9588,-255.421"/>
<polygon fill="#000000" stroke="#000000" points="905.8237,-251.9208 895.8163,-255.3994 905.8088,-258.9207 905.8237,-251.9208"/>
<text text-anchor="middle" x="1102.5" y="-259.0837" font-family="Times,serif" font-size="14.00" fill="#000000">tr_alert_enabled_select_done (ID=23)</text>
</g>
<!-- wifi_disconnected&#45;&gt;wifi_connected -->
<g id="edge26" class="edge">
<title>wifi_disconnected&#45;&gt;wifi_connected</title>
<path fill="none" stroke="#000000" d="M1686.4847,-843.894C1616.3831,-842.993 1490.3258,-840.0253 1383,-830.2837 1326.6631,-825.1701 1312.9501,-820.6254 1257,-812.2837 1119.539,-791.7892 1085.3761,-785.3399 948,-764.2837 837.8116,-747.3946 535.8696,-762.718 452,-689.2837 424.3445,-665.0691 402.577,-570.1238 390.5013,-504.994"/>
<polygon fill="#000000" stroke="#000000" points="393.8822,-504.0235 388.647,-494.8125 386.9955,-505.2778 393.8822,-504.0235"/>
<text text-anchor="middle" x="1102.5" y="-813.0837" font-family="Times,serif" font-size="14.00" fill="#000000">tr_wifi_reconnected (ID=6)</text>
</g>
<!-- wifi_disconnected&#45;&gt;reboot -->
<g id="edge35" class="edge">
<title>wifi_disconnected&#45;&gt;reboot</title>
<path fill="none" stroke="#000000" d="M1788.0061,-818.4731C1807.053,-807.6059 1828.9573,-794.4413 1848,-781.2837 1931.2375,-723.7705 2021.337,-648.2451 2074.9261,-601.7715"/>
<polygon fill="#000000" stroke="#000000" points="2077.3131,-604.3341 2082.5626,-595.1311 2072.7199,-599.0518 2077.3131,-604.3341"/>
<text text-anchor="middle" x="1958.5" y="-768.0837" font-family="Times,serif" font-size="14.00" fill="#000000"> (10000ms)</text>
</g>
<!-- wifi_alert_switch&#45;&gt;wifi_alert -->
<g id="edge25" class="edge">
<title>wifi_alert_switch&#45;&gt;wifi_alert</title>
<path fill="none" stroke="#000000" d="M1687.9456,-704.9902C1617.0231,-689.4557 1487.5185,-669.638 1383,-701.2837 1375.8826,-703.4386 1368.8258,-706.5549 1362.0721,-710.18"/>
<polygon fill="#000000" stroke="#000000" points="1359.9695,-707.3532 1353.0733,-715.3964 1363.4801,-713.4093 1359.9695,-707.3532"/>
<text text-anchor="middle" x="1499" y="-705.0837" font-family="Times,serif" font-size="14.00" fill="#000000">tr_wifi_alert_switch_end (ID=5)</text>
</g>
</g>

<g transform="translate(0.000000,17.000000) scale(0.100000,-0.100000)"
fill="#000000" stroke="none">
<path d="M21 157 c-29 -35 -16 -97 20 -97 15 0 19 -5 15 -16 -3 -9 -6 -20 -6
-25 0 -5 -4 -9 -10 -9 -14 0 -12 27 3 33 6 3 2 6 -10 6 -30 1 -31 -35 -3 -44
28 -9 47 9 55 51 3 20 9 42 12 50 3 8 -1 14 -11 14 -9 0 -16 -8 -16 -19 0 -26
-15 -34 -30 -16 -13 16 -6 48 16 70 14 13 13 15 -4 15 -11 0 -25 -6 -31 -13z"/>
<path d="M80 150 c0 -13 5 -20 13 -17 6 2 12 10 12 17 0 7 -6 15 -12 18 -8 2
-13 -5 -13 -18z"/>
<path d="M347 164 c-13 -13 -7 -24 14 -24 11 0 19 5 17 12 -5 14 -22 21 -31
12z"/>
<path d="M103 85 c-9 -40 -8 -45 8 -45 13 0 19 9 21 33 2 24 7 31 21 29 10 -2
17 3 17 13 0 10 -9 15 -28 15 -26 0 -30 -5 -39 -45z"/>
<path d="M175 101 c-24 -48 -13 -59 64 -60 63 -1 69 1 79 25 15 31 15 64 1 64
-6 0 -8 -8 -5 -18 4 -10 -1 -27 -10 -38 -14 -18 -15 -17 -9 19 5 29 3 37 -9
37 -9 0 -18 -13 -22 -35 -3 -19 -10 -35 -14 -35 -4 0 -4 16 0 35 8 35 8 35
-26 35 -27 0 -36 -6 -49 -29z m47 -6 c-5 -28 -22 -44 -22 -21 0 21 11 46 20
46 4 0 5 -11 2 -25z"/>
<path d="M340 116 c0 -7 -3 -28 -6 -45 -6 -26 -3 -31 13 -31 10 0 25 6 32 12
11 10 13 10 7 1 -5 -9 3 -13 28 -13 25 0 36 4 36 15 0 8 -4 15 -10 15 -5 0
-10 -4 -10 -10 0 -5 -5 -10 -11 -10 -6 0 -2 12 9 28 36 51 36 52 -2 52 -25 0
-36 -4 -36 -15 0 -8 5 -15 10 -15 6 0 10 5 10 12 0 6 3 9 6 6 9 -10 -19 -46
-39 -52 -17 -4 -18 -1 -13 30 6 27 4 34 -9 34 -8 0 -15 -6 -15 -14z"/>
<path d="M472 118 c-7 -7 -12 -27 -12 -46 0 -30 2 -33 27 -30 17 2 32 12 39
27 7 13 18 28 26 33 10 8 9 8 -4 4 -12 -3 -18 0 -18 9 0 18 -41 20 -58 3z m29
-51 c-13 -13 -15 11 -4 40 7 16 8 15 11 -6 2 -13 -1 -28 -7 -34z"/>
</g>
</svg>
